<svg width="122" height="123" viewBox="0 0 122 123" fill="none" xmlns="http://www.w3.org/2000/svg">
<path d="M91.54 110.09L72.45 91.78C71.7407 91.1041 70.7998 90.7249 69.82 90.72H9.82C9.53597 90.7213 9.2545 90.6664 8.99184 90.5583C8.72918 90.4502 8.49053 90.2911 8.2897 90.0903C8.08886 89.8895 7.92981 89.6508 7.82172 89.3882C7.71364 89.1255 7.65867 88.844 7.66 88.56V9.82C7.66389 9.24863 7.89402 8.70207 8.3 8.3C8.70391 7.89675 9.24929 7.66711 9.82 7.66H112C112.568 7.67741 113.109 7.91028 113.512 8.31138C113.915 8.71248 114.15 9.2518 114.17 9.82V88.55C114.162 89.1222 113.931 89.6685 113.525 90.0722C113.12 90.4759 112.572 90.7048 112 90.71H95.36C94.346 90.7126 93.3743 91.1173 92.6582 91.8353C91.9421 92.5533 91.54 93.526 91.54 94.54V110.09ZM93.37 63.56C93.873 63.56 94.371 63.4609 94.8357 63.2685C95.3004 63.076 95.7226 62.7939 96.0782 62.4382C96.4339 62.0826 96.716 61.6604 96.9085 61.1957C97.1009 60.731 97.2 60.233 97.2 59.73C97.2 59.227 97.1009 58.729 96.9085 58.2643C96.716 57.7996 96.4339 57.3774 96.0782 57.0218C95.7226 56.6661 95.3004 56.384 94.8357 56.1915C94.371 55.9991 93.873 55.9 93.37 55.9H40.37C39.3542 55.9 38.38 56.3035 37.6618 57.0218C36.9435 57.74 36.54 58.7142 36.54 59.73C36.54 60.7458 36.9435 61.72 37.6618 62.4382C38.38 63.1565 39.3542 63.56 40.37 63.56H66.87H93.37ZM93.37 38.7C93.8888 38.7265 94.4075 38.6473 94.8947 38.467C95.3818 38.2868 95.8272 38.0093 96.2038 37.6515C96.5803 37.2937 96.8802 36.8631 97.0851 36.3858C97.29 35.9084 97.3956 35.3944 97.3956 34.875C97.3956 34.3556 97.29 33.8416 97.0851 33.3642C96.8802 32.8869 96.5803 32.4563 96.2038 32.0985C95.8272 31.7407 95.3818 31.4632 94.8947 31.283C94.4075 31.1027 93.8888 31.0235 93.37 31.05C67.9859 31.05 53.7541 31.05 28.37 31.05C27.3894 31.1002 26.4655 31.525 25.7891 32.2369C25.1128 32.9487 24.7356 33.8931 24.7356 34.875C24.7356 35.8569 25.1128 36.8013 25.7891 37.5131C26.4655 38.225 27.3894 38.6498 28.37 38.7H93.37ZM68.28 98.36L92.55 121.64C93.0703 122.209 93.7508 122.608 94.5019 122.783C95.253 122.959 96.0396 122.902 96.7582 122.622C97.4768 122.342 98.0937 121.851 98.5277 121.213C98.9618 120.575 99.1927 119.821 99.19 119.05V98.36H112C114.599 98.3469 117.087 97.3094 118.926 95.4728C120.764 93.6362 121.804 91.1486 121.82 88.55V9.82C121.799 7.22204 120.758 4.73642 118.921 2.89932C117.084 1.06223 114.598 0.0209101 112 0C72.0962 0 49.7238 0 9.82 0C7.21962 0.0131401 4.7295 1.05196 2.89073 2.89073C1.05197 4.7295 0.0131401 7.21962 0 9.82V88.55C0.0105475 91.1503 1.04886 93.6409 2.88847 95.4786C4.72808 97.3163 7.21973 98.3521 9.82 98.36H68.28Z" fill="black"/>
</svg>
