<?xml version="1.0" ?><svg id="a" fill="#e9ebe9" viewBox="0 0 750 750" xmlns="http://www.w3.org/2000/svg"><path d="M410.01,166.09c-131.72-46.52-177.63,50.87-188.27,165.28-2.26,49.18,33.9,88.46,56.4,129.19,17.67,28.51,35.8,56.77,57.22,82.64,6.22,8.65,11.33,17.97,17.03,26.95,4.15,5.88,6.88,14.12,13.63,17.43,.69,1.46,1.56,2.85,2.59,4.2,1.1,1.44,2.9,2.69,4.59,3.31,5.9,2.4,11.86-1.68,14.36-7,6.02-9.85,12.77-19.26,18.72-29.17,22.75-38.71,47.91-76.06,68.17-116.17,70.96-119.11,92.18-225.32-64.45-276.66Zm42.31,266.04c-25.85,42.09-51.8,84.11-79.41,125.09-10.65-19.64-20.21-39.84-33.63-57.93-16.35-27.05-31.21-55.03-50.04-80.52-17.14-26.41-41.56-50.43-49.28-81.6-3.8-31.22,5.5-63.22,22.44-89.41,16.05-25.08,40.74-44.88,70.76-49.29,31.94-4.73,65.83-1.96,96.31,8.77,56.81,23.43,83.22,83.58,69.68,142.28-11.35,29.61-30.46,55.63-46.85,82.61Z"/><path d="M395.71,220.44c-9.21-12.55-31.65-6.56-44.8-4.27-14.68,3.42-28.56,10.61-40.07,20.32-26.46,24.21-39.45,62.11-37.77,97.52,3.38,50.95,53.69,85.85,101.94,87.63,37.22,2.08,72.9-24.06,85.8-58.42,19.5-54.66-13.13-120.19-65.11-142.78Zm20.96,149.34c-13.6,13.71-30.55,25.81-50.76,24.69-24.55,.3-48.31-13.11-60.8-34.24-12.87-23.19-9.05-52.9,3.43-75.46,14.4-27.09,47.28-39.45,76.74-37.29,1.15,1.85,2.66,3.46,4.55,4.66,19.72,12.87,37.97,24.12,44.22,48.55,7.54,24.52,1.17,51.23-17.38,69.09Z"/></svg>